<svg width="20" height="20" fill="none" xmlns="http://www.w3.org/2000/svg"><path d="m5.824 11.565-.522 1.949-1.908.04A7.466 7.466 0 0 1 2.5 10c0-1.244.302-2.417.839-3.45l1.699.312.744 1.689a4.458 4.458 0 0 0 .042 3.014Z" fill="#FBBB00"/><path d="M17.369 8.6a7.51 7.51 0 0 1-.033 2.966 7.499 7.499 0 0 1-2.64 4.283h-.001l-2.14-.11-.303-1.89a4.47 4.47 0 0 0 1.923-2.283h-4.01V8.6h7.204Z" fill="#518EF8"/><path d="M14.695 15.849A7.468 7.468 0 0 1 10 17.5a7.499 7.499 0 0 1-6.606-3.945l2.43-1.99a4.46 4.46 0 0 0 6.428 2.284l2.443 2Z" fill="#28B446"/><path d="m14.787 4.227-2.43 1.989A4.46 4.46 0 0 0 5.783 8.55l-2.443-2A7.499 7.499 0 0 1 10 2.5c1.82 0 3.488.648 4.787 1.727Z" fill="#F14336"/></svg>