<svg width="20" height="23" fill="none" xmlns="http://www.w3.org/2000/svg"><path d="M1.95 17.97h16.147c.958 0 1.539-.488 1.539-1.232 0-1.019-1.04-1.936-1.916-2.842-.672-.703-.855-2.15-.937-3.321-.071-3.912-1.11-6.601-3.82-7.58C12.576 1.662 11.527.613 10.02.613c-1.498 0-2.557 1.05-2.934 2.384-2.71.978-3.749 3.667-3.82 7.579-.082 1.171-.265 2.618-.937 3.32-.887.907-1.915 1.824-1.915 2.843 0 .744.57 1.233 1.538 1.233Zm8.069 4.086c1.732 0 2.995-1.264 3.127-2.69H6.902c.132 1.426 1.395 2.69 3.117 2.69Z" fill="#CCC"/></svg>