<svg width="22" height="21" fill="none" xmlns="http://www.w3.org/2000/svg"><path d="M14.13 18.159a2.728 2.728 0 1 0 2.728-2.728H7.77a.65.65 0 0 1-.64-.535l-.276-1.518 7.377 4.78m-.1 0h.1m-.1 0h.1m-.1 0c0-.352.068-.7.2-1.026m-.1 1.027c0-.353.07-.703.21-1.027h-.11m0 0h-3.956m3.957 0a2.74 2.74 0 0 1 .043-.1l-4 .1m0 0a2.728 2.728 0 1 1-4.456-.9 2.353 2.353 0 0 1-.463-1.032l4.92 1.932ZM3.071 2.114 5.455 15.2 20.814 4.537l.076-.065a.85.85 0 0 0-.653-.305H5.18l-.444-2.439A1.602 1.602 0 0 0 3.159.413H1.465a.85.85 0 1 0 0 1.701H3.07Zm3.473 9.562L5.488 5.87h13.73l-.956 5.273a.65.65 0 0 1-.643.534H6.543Zm2.33 6.483a1.026 1.026 0 1 1-2.053 0 1.026 1.026 0 0 1 2.053 0Zm9.01 0a1.026 1.026 0 1 1-2.052 0 1.026 1.026 0 0 1 2.052 0Z" fill="#CCC" stroke="#CCC" stroke-width=".2"/></svg>