<svg width="19" height="19" fill="none" xmlns="http://www.w3.org/2000/svg"><path d="M9.502 4.629A4.863 4.863 0 0 0 4.632 9.5a4.863 4.863 0 0 0 4.87 4.871 4.863 4.863 0 0 0 4.87-4.871 4.863 4.863 0 0 0-4.87-4.871Zm0 8.038A3.172 3.172 0 0 1 6.336 9.5a3.17 3.17 0 0 1 3.166-3.167A3.17 3.17 0 0 1 12.668 9.5a3.172 3.172 0 0 1-3.166 3.167Zm6.206-8.238c0 .632-.51 1.137-1.136 1.137a1.136 1.136 0 1 1 1.136-1.136Zm3.225 1.154c-.072-1.522-.42-2.87-1.534-3.981C16.289.49 14.94.143 13.419.067c-1.569-.09-6.27-.09-7.838 0-1.517.072-2.865.42-3.98 1.53C.486 2.708.143 4.057.067 5.578c-.09 1.569-.09 6.27 0 7.84.072 1.522.42 2.87 1.534 3.98 1.115 1.111 2.459 1.459 3.98 1.535 1.569.09 6.27.09 7.838 0 1.521-.072 2.87-.42 3.98-1.535 1.11-1.11 1.458-2.458 1.534-3.98.09-1.57.09-6.267 0-7.835ZM16.907 15.1a3.206 3.206 0 0 1-1.806 1.806c-1.25.496-4.217.381-5.599.381-1.382 0-4.353.11-5.6-.381A3.209 3.209 0 0 1 2.097 15.1c-.496-1.251-.381-4.219-.381-5.601 0-1.382-.11-4.354.381-5.6a3.2 3.2 0 0 1 1.806-1.807c1.25-.496 4.217-.381 5.6-.381 1.38 0 4.352-.11 5.598.381a3.208 3.208 0 0 1 1.806 1.806c.496 1.251.382 4.219.382 5.601 0 1.382.114 4.354-.382 5.6Z" fill="#FF4500"/></svg>