<svg width="20" height="16" fill="none" xmlns="http://www.w3.org/2000/svg"><path d="M17.944 3.987c.013.175.013.35.013.526C17.957 9.85 13.833 16 6.294 16A11.7 11.7 0 0 1 0 14.187c.33.038.647.05.99.05 1.916 0 3.68-.637 5.089-1.725-1.802-.037-3.312-1.2-3.833-2.8.254.038.508.063.774.063.368 0 .736-.05 1.079-.137-1.878-.376-3.287-2-3.287-3.963v-.05c.546.3 1.18.488 1.853.512A4.02 4.02 0 0 1 .838 2.775c0-.75.203-1.438.558-2.038a11.71 11.71 0 0 0 8.452 4.225 4.492 4.492 0 0 1-.102-.924c0-2.226 1.828-4.038 4.1-4.038 1.18 0 2.245.487 2.994 1.275A8.145 8.145 0 0 0 19.442.3a4.038 4.038 0 0 1-1.802 2.225A8.316 8.316 0 0 0 20 1.9a8.74 8.74 0 0 1-2.056 2.087Z" fill="#FF4500"/></svg>